<?xml version="1.0" encoding="UTF-8" standalone="no"?>
<!-- Created with Inkscape (http://www.inkscape.org/) -->

<svg
   version="1.1"
   id="svg2"
   width="400"
   height="600"
   viewBox="0 0 400 600"
   sodipodi:docname="folder.svg"
   xml:space="preserve"
   inkscape:export-filename="folder_empty.png"
   inkscape:export-xdpi="96"
   inkscape:export-ydpi="96"
   inkscape:version="1.2.1 (9c6d41e410, 2022-07-14)"
   xmlns:inkscape="http://www.inkscape.org/namespaces/inkscape"
   xmlns:sodipodi="http://sodipodi.sourceforge.net/DTD/sodipodi-0.dtd"
   xmlns="http://www.w3.org/2000/svg"
   xmlns:svg="http://www.w3.org/2000/svg"><defs
     id="defs6" /><sodipodi:namedview
     id="namedview4"
     pagecolor="#ffffff"
     bordercolor="#000000"
     borderopacity="0.25"
     inkscape:showpageshadow="2"
     inkscape:pageopacity="0.0"
     inkscape:pagecheckerboard="0"
     inkscape:deskcolor="#d1d1d1"
     showgrid="true"
     inkscape:zoom="0.78050065"
     inkscape:cx="-605.38066"
     inkscape:cy="391.41543"
     inkscape:window-width="3440"
     inkscape:window-height="1361"
     inkscape:window-x="2391"
     inkscape:window-y="-9"
     inkscape:window-maximized="1"
     inkscape:current-layer="g13625"><inkscape:grid
       type="xygrid"
       id="grid354"
       spacingx="10"
       spacingy="10"
       empspacing="10"
       originx="0"
       originy="0" /></sodipodi:namedview><g
     inkscape:groupmode="layer"
     inkscape:label="folder"
     id="g13615"
     style="display:inline"><g
       id="g13611"
       transform="matrix(0,0.38059344,-0.38059344,0,547.08279,71.413634)"
       style="stroke-width:2.62748"><g
         id="g13607"
         style="stroke-width:2.62748"><path
           id="path13605"
           style="fill:#464c8a;fill-opacity:1;stroke:#151b53;stroke-width:26.2748;stroke-linecap:round;stroke-linejoin:round;stroke-dasharray:none;stroke-opacity:1;paint-order:normal"
           d="m 1105.2729,491.07413 c 27.6999,0 47.3286,22.07966 44.012,49.50123 l -12.0945,99.99803 -12.2161,109.92736 -43.6018,500.00045 c -2.3822,27.3178 -22.2991,49.5012 -49.999,49.5012 H 35.876141 c -27.6999696,0 -51.83047,-22.1409 -49.99901,-49.5012 l 43.60184,-651.37105 c 1.831462,-27.36034 22.29904,-49.4961 49.99901,-49.4961 H 628.17502 l 4.208,-9.05869 c 11.55246,-24.86933 22.29904,-49.50123 49.99901,-49.50123 z"
           sodipodi:nodetypes="ssccsssssscsss" /></g></g></g><g
     inkscape:groupmode="layer"
     id="layer1"
     inkscape:label="papers"
     style="display:none"><path
       style="fill:#f2f2f2;fill-opacity:1;stroke:#151b53;stroke-width:10;stroke-linecap:round;stroke-linejoin:round"
       d="M 85.906722,99.295241 324.2153,118.51367 332.5433,515.05403 85.266108,478.539 Z"
       id="path909"
       sodipodi:nodetypes="ccccc" /><path
       style="fill:#f2f2f2;fill-opacity:1;stroke:#151b53;stroke-width:10;stroke-linecap:round;stroke-linejoin:round"
       d="M 85.906722,99.295241 307.55933,128.7635 310.12179,524.66324 85.266108,478.539 Z"
       id="path907"
       sodipodi:nodetypes="ccccc" /><path
       style="fill:#f2f2f2;fill-opacity:1;stroke:#151b53;stroke-width:10;stroke-linecap:round;stroke-linejoin:round"
       d="M 85.906722,99.295241 281.29413,136.45088 290.90335,531.71 85.266108,478.539 Z"
       id="path491"
       sodipodi:nodetypes="ccccc" /></g><g
     inkscape:groupmode="layer"
     inkscape:label="folder_front"
     id="g306"
     style="display:inline"><g
       id="g302"
       transform="matrix(0,0.38059344,-0.38059344,0,547.08279,71.413634)"
       style="stroke-width:2.62748"><path
         id="path300"
         style="fill:#6570df;fill-opacity:1;stroke:#151b53;stroke-width:26.4576;stroke-linecap:round;stroke-linejoin:round;stroke-dasharray:none;stroke-opacity:1;paint-order:normal"
         d="m 203.34207,1278.1087 c 4.64707,22.9114 24.74914,40.0458 48.98662,40.0458 h 617.5975 379.78831 c 27.6999,0 47.5463,-22.8944 50.0011,-50.1873 l 43.6017,-484.78044 c 2.4548,-27.29294 -22.2978,-50.19258 -49.9977,-50.19258 H 813.12059 l 0.002,-10.34969 c 0,-27.80455 -22.29782,-50.19258 -49.9978,-50.19258 H 263.90457 c -63.80667,0 -60.66174,59.42014 -60.74894,110.73485 l -0.82378,484.78044 c -0.006,3.4115 0.34644,6.8685 1.01031,10.1415 z"
         transform="matrix(1,0,-0.16540316,0.98622604,0,0)"
         sodipodi:nodetypes="cscssssccsssscc" /></g></g><path
     d="M 274.56767,97.373394 89.109791,70.147281 282.25505,85.20172 Z"
     style="fill:#464c8a;fill-opacity:1;stroke:none;stroke-width:10;stroke-linecap:round;stroke-linejoin:round;stroke-dasharray:none;stroke-opacity:1;paint-order:normal"
     id="path412" /><g
     inkscape:groupmode="layer"
     inkscape:label="arrow"
     id="g13625"
     style="display:none"><g
       id="g13623"
       transform="matrix(0,0.38059344,-0.38059344,0,549.25112,77.179165)"
       style="stroke-width:2.62748"><path
         id="rect13854"
         style="fill:#f2f2f2;stroke:#151b53;stroke-width:26.2748;stroke-linecap:round;stroke-linejoin:round;stroke-opacity:1"
         d="m 147.4694,916.82942 327.07283,250.76078 -2e-5,-140.6483 c 302.66652,0 392.33495,58.8615 519.68805,157.1066 C 1006.6212,866.70277 692.80212,759.4974 474.5422,773.05822 v -109.5091 z"
         sodipodi:nodetypes="ccccccc" /></g></g></svg>
